<mxfile host="Electron" agent="Mozilla/5.0 (Windows NT 10.0; Win64; x64) AppleWebKit/537.36 (KHTML, like Gecko) draw.io/24.7.8 Chrome/128.0.6613.36 Electron/32.0.1 Safari/537.36" version="24.7.8">
  <diagram name="PÃ¡gina-1" id="RNEAreq4EhELPC2LDsmZ">
    <mxGraphModel dx="500" dy="341" grid="1" gridSize="10" guides="1" tooltips="1" connect="1" arrows="1" fold="1" page="1" pageScale="1" pageWidth="827" pageHeight="1169" math="0" shadow="0">
      <root>
        <mxCell id="0" />
        <mxCell id="1" parent="0" />
        <mxCell id="BHvhbDtE7C3Lc0Mfjhkl-7" style="edgeStyle=orthogonalEdgeStyle;rounded=0;orthogonalLoop=1;jettySize=auto;html=1;flowAnimation=1;shadow=1;" edge="1" parent="1" source="BHvhbDtE7C3Lc0Mfjhkl-1" target="BHvhbDtE7C3Lc0Mfjhkl-3">
          <mxGeometry relative="1" as="geometry" />
        </mxCell>
        <mxCell id="BHvhbDtE7C3Lc0Mfjhkl-1" value="" style="fontColor=#0066CC;verticalAlign=top;verticalLabelPosition=bottom;labelPosition=center;align=center;html=1;outlineConnect=0;fillColor=#CCCCCC;strokeColor=#6881B3;gradientColor=none;gradientDirection=north;strokeWidth=2;shape=mxgraph.networks.pc;" vertex="1" parent="1">
          <mxGeometry x="50" y="180" width="100" height="70" as="geometry" />
        </mxCell>
        <mxCell id="BHvhbDtE7C3Lc0Mfjhkl-3" value="" style="shape=mxgraph.cisco.computers_and_peripherals.ibm_mainframe;html=1;pointerEvents=1;dashed=0;fillColor=#036897;strokeColor=#ffffff;strokeWidth=2;verticalLabelPosition=bottom;verticalAlign=top;align=center;outlineConnect=0;" vertex="1" parent="1">
          <mxGeometry x="270" y="180" width="50" height="70" as="geometry" />
        </mxCell>
        <mxCell id="BHvhbDtE7C3Lc0Mfjhkl-4" value="Backend" style="text;html=1;align=center;verticalAlign=middle;whiteSpace=wrap;rounded=0;" vertex="1" parent="1">
          <mxGeometry x="270" y="140" width="60" height="30" as="geometry" />
        </mxCell>
        <mxCell id="BHvhbDtE7C3Lc0Mfjhkl-5" value="Frontend" style="text;html=1;align=center;verticalAlign=middle;whiteSpace=wrap;rounded=0;" vertex="1" parent="1">
          <mxGeometry x="70" y="130" width="60" height="30" as="geometry" />
        </mxCell>
        <mxCell id="BHvhbDtE7C3Lc0Mfjhkl-6" value="DB" style="shape=cylinder3;whiteSpace=wrap;html=1;boundedLbl=1;backgroundOutline=1;size=15;" vertex="1" parent="1">
          <mxGeometry x="450" y="170" width="60" height="80" as="geometry" />
        </mxCell>
        <mxCell id="BHvhbDtE7C3Lc0Mfjhkl-8" style="edgeStyle=orthogonalEdgeStyle;rounded=0;orthogonalLoop=1;jettySize=auto;html=1;entryX=0.167;entryY=0.563;entryDx=0;entryDy=0;entryPerimeter=0;flowAnimation=1;shadow=1;" edge="1" parent="1" source="BHvhbDtE7C3Lc0Mfjhkl-3" target="BHvhbDtE7C3Lc0Mfjhkl-6">
          <mxGeometry relative="1" as="geometry" />
        </mxCell>
        <mxCell id="BHvhbDtE7C3Lc0Mfjhkl-9" value="Actor" style="shape=umlActor;verticalLabelPosition=bottom;verticalAlign=top;html=1;outlineConnect=0;" vertex="1" parent="1">
          <mxGeometry x="85" y="310" width="30" height="60" as="geometry" />
        </mxCell>
        <mxCell id="BHvhbDtE7C3Lc0Mfjhkl-10" style="edgeStyle=orthogonalEdgeStyle;rounded=0;orthogonalLoop=1;jettySize=auto;html=1;entryX=0.5;entryY=1;entryDx=0;entryDy=0;entryPerimeter=0;shadow=1;flowAnimation=1;" edge="1" parent="1" source="BHvhbDtE7C3Lc0Mfjhkl-9" target="BHvhbDtE7C3Lc0Mfjhkl-1">
          <mxGeometry relative="1" as="geometry" />
        </mxCell>
        <mxCell id="BHvhbDtE7C3Lc0Mfjhkl-11" style="edgeStyle=orthogonalEdgeStyle;rounded=0;orthogonalLoop=1;jettySize=auto;html=1;entryX=0.5;entryY=0;entryDx=0;entryDy=0;entryPerimeter=0;flowAnimation=1;shadow=1;fillColor=#fff2cc;strokeColor=#d6b656;" edge="1" parent="1" source="BHvhbDtE7C3Lc0Mfjhkl-6" target="BHvhbDtE7C3Lc0Mfjhkl-3">
          <mxGeometry relative="1" as="geometry">
            <Array as="points">
              <mxPoint x="480" y="160" />
              <mxPoint x="295" y="160" />
            </Array>
          </mxGeometry>
        </mxCell>
      </root>
    </mxGraphModel>
  </diagram>
</mxfile>
